<svg version="1.1" id="Layer_1" xmlns="http://www.w3.org/2000/svg" xmlns:xlink="http://www.w3.org/1999/xlink" x="0px" y="0px" viewBox="0 0 1200 1200" enable-background="new 0 0 1200 1200" xml:space="preserve">
<g>
	<path fill="#9B7137" d="M899.952,487.454c54.122,0.279,112.067-33.48,147.859-69.208c28.475-28.425,46.204-63.134,54.248-102.422&#10;&#9;&#9;c8.743-42.697,12.857-88.519-0.279-130.786c-12.513-40.26-39.292-78.993-73.051-104.336&#10;&#9;&#9;c-33.812-25.383-76.563-33.936-118.155-29.645c-74.231,7.658-145.665,55.748-172.264,126.795&#10;&#9;&#9;c-15.341,40.978-17.227,87.441-13.187,131.283c-35.74-12.097-78.138-9.282-114.872-7.775&#10;&#9;&#9;c-43.475,1.784-131.901,20.533-132.342,21.221c-17.658-33.307-80.24-151.631-96.236-175.745&#10;&#9;&#9;c-11.666-17.585-30.807-17.725-50.014-12.707c-10.324,2.697-22.099,8.558-29.323,16.545c-13.525,14.953,7.141,34,14.601,47.51&#10;&#9;&#9;c8.816,15.967,57.84,108.273,73.814,138.311c-7.178,0.878-50.719,14.043-65.258,19.052c-28.309,9.755-55.61,21.587-81.705,36.251&#10;&#9;&#9;c-17.179-13-45.089-21.959-58.38-1.658c-9.119,13.929-6.792,27.472-0.997,40.856c-8.325,5.074-15.968,11.463-23.717,17.271&#10;&#9;&#9;c-22.681,17-16.135,41.239-15.513,67.314c0.829,34.774,1.044,69.558,1.707,104.335c1.32,69.317,4.422,138.928,17.515,207.166&#10;&#9;&#9;c2.375,12.377,22.753,92.981,30.721,120.828c7.174,25.076,13.723,50.528,26.242,73.582&#10;&#9;&#9;c25.373,46.726,67.909,81.668,115.761,103.724c59.096,27.238,125.565,27.708,189.334,21.602&#10;&#9;&#9;c67.545-6.467,133.771-23.317,198.025-44.71c61.269-20.399,125.12-42.363,175.582-84.049&#10;&#9;&#9;c38.661-31.938,66.857-77.086,77.307-126.272c14.553-68.494,0.027-139.118-13.163-206.795&#10;&#9;&#9;C951.343,618.963,937.398,544.882,899.952,487.454z M246.78,302.014c21.751,22.656,4.453,70.129-29.424,57.307&#10;&#9;&#9;c-22.032-8.339-44.266-36.777-23.054-57.293C208.225,288.561,233.111,287.776,246.78,302.014z M1102.21,536.229&#10;&#9;&#9;c5.528,15.129-33.064,27.743-33.815,25.753c5.862,15.541-0.661,37.579-16.212,44.761c-8.642,3.991-19.055,2.193-26.624-3.305&#10;&#9;&#9;c-8.45-6.139-12.182-15.705-13.373-25.639c-12.691,8.901-35.252,22.831-44.337,10.884c-5.491-7.22,4.751-48.173,12.007-43.481&#10;&#9;&#9;c-10.872-7.057-27.678-19.424-18.93-31.019c8.73-11.57,30.109-5.273,42.382-0.107c-4.311-1.815,25.048-28.675,27.872-29.896&#10;&#9;&#9;c21.722-9.391,21.472,25.088,22.009,37.923c-0.118-2.807,15.809-1.417,29.596,2.651&#10;&#9;&#9;C1092.123,527.509,1100.479,531.491,1102.21,536.229z M123.008,227.381c-13.279,0.209-38.145-3.343-32.326-17.993&#10;&#9;&#9;c4.033-10.153,27.162-22.764,41.089-21.268c-0.634-8.217-1.507-16.82-0.655-24.854c0.691-6.508,4.969-10.974,11.443-12.015&#10;&#9;&#9;c15.106-2.429,29.001,15.041,35.92,27.235c13.864-6.694,37.794-15.035,48.47-0.478c4.38,5.971,3.678,13.353-0.485,19.243&#10;&#9;&#9;c-3.365,4.761-9.993,10.08-15.989,13.44c4.437,6.084,10.818,10.954,12.486,18.663c1.414,6.536-0.862,14.989-5.954,19.482&#10;&#9;&#9;c-12.772,11.271-36.686,0-51.128-7.569c-5.245,12.971-15.929,37.318-30.035,33.81C119.066,270.903,122.265,241.964,123.008,227.381&#10;&#9;&#9;z M1098.726,451.298c-4.155-3.606-8.462-2.875-13.682-2.448c-0.69-4.649-1.3-9.306-1.771-13.988&#10;&#9;&#9;c-0.498-4.947-9.884-3.474-9.79,1.286c0.09,4.525,0.393,9.008,0.841,13.474c-3.799,0.27-7.597,0.556-11.397,0.813&#10;&#9;&#9;c-6.096,0.414-6.743,8.967-0.152,8.776c4.019-0.117,8.368,0.059,12.771,0.124c0.713,0.011,3.875,10.463,6.258,11.37&#10;&#9;&#9;c6.81,2.593,5.837-6.855,4.946-11.739c3.812-0.375,7.502-1.07,10.85-2.449C1099.666,455.666,1100.67,452.986,1098.726,451.298z&#10;&#9;&#9; M1054.715,671.034c-11.059,8.091-18.529,18.019-23.11,30.878c-1.291,3.623-8.875,5.321-9.878,0.606&#10;&#9;&#9;c-1.254-5.898-2.903-11.671-6.81-16.416c-3.356-4.076-7.573-5.961-10.787-9.741c-2.489-1.43-3.474-5.014,0.173-6.659&#10;&#9;&#9;c12.652-5.707,13.82-20.868,13.129-32.752c-0.268-4.639,7.723-6.243,9.22-1.855c4.17,12.227,9.941,27.869,25.333,27.867&#10;&#9;&#9;C1056.275,662.961,1058.317,668.399,1054.715,671.034z M177.045,1042.675c-8.806,12.129-15.528,24.641-20.216,38.877&#10;&#9;&#9;c-1.303,3.958-8.51,7.499-10.506,1.986c-4.727-13.061-14.539-18.565-21.547-29.649c-0.412-0.651-1.643-3.611-1.085-4.928&#10;&#9;&#9;c6.505-15.349,8.902-30.474,6.745-47.002c-0.737-5.646,9.16-7.187,10.144-1.279c2.591,15.567,10.019,39.567,30.577,33.475&#10;&#9;&#9;C176.013,1032.715,180.05,1038.536,177.045,1042.675z M213.652,1082.441c-0.087-6.915-0.393-13.796-0.385-20.205&#10;&#9;&#9;c0.005-4.755-9.162-4.476-9.515,0.083c-0.443,5.731-0.77,11.473-1.119,17.213c-3.052-1.036-6.042-2.273-9.061-3.794&#10;&#9;&#9;c-4.328-2.18-10.598,4.618-5.8,7.746c4.316,2.814,9.095,5.585,14.103,7.554c-0.507,6.429-1.308,13.097,0.336,19.249&#10;&#9;&#9;c1.105,4.133,8.193,2.957,9.117-0.673c1.272-4.992,1.87-10.35,2.145-15.828c3.074,0.185,6.167-0.109,9.234-1.043&#10;&#9;&#9;c1.997-0.609,4.223-2.913,2.291-5.066C221.902,1084.227,217.965,1083.346,213.652,1082.441z M268.17,215.708&#10;&#9;&#9;c3.737,14.882,16.213,24.154,31.673,22.68c4.059-0.387,5.993,5.194,3.478,7.945c-9.485,10.373-16.783,21.71-21.741,34.868&#10;&#9;&#9;c-1.518,4.031-7.245,6.892-10.108,2.348c-6.421-10.191-15.908-16.48-23.046-25.532c-2.039-1.028-3.207-3.213-1.355-5.72&#10;&#9;&#9;c7.484-10.135,14.011-20.689,11.187-33.707C257.186,213.647,266.905,210.669,268.17,215.708z M223.182,152.367&#10;&#9;&#9;c5.882-2.487,11.782-4.936,17.646-7.464c2.993,5.215,6.008,10.406,9.359,15.357c3.272,4.833,11.437-0.716,9.487-5.751&#10;&#9;&#9;c-1.929-4.981-4.469-9.792-7.366-14.423c0.266,0.425,10.568-5.214,7.429-10.288c-3.252-5.256-9.944-0.308-13.527,1.437&#10;&#9;&#9;c-2.99-3.989-6.152-7.818-9.326-11.454c-3.039-3.481-11.084,0.82-8.128,5.158c2.523,3.703,4.836,7.541,7.101,11.408&#10;&#9;&#9;c-5.624,2.778-11.273,5.505-16.876,8.332C213.829,147.277,218.083,154.523,223.182,152.367z M650.437,261.609&#10;&#9;&#9;c6.299,0.86,12.601,1.698,18.903,2.537c-0.501,2.544-1.019,5.087-1.599,7.628c-0.554,2.433,0.522,5.435,2.893,6.518&#10;&#9;&#9;c0.212,0.097,0.424,0.194,0.637,0.291c1.046,0.478,2.78,0.785,3.796,0.012c3.953-3.008,5.012-7.991,5.659-12.915&#10;&#9;&#9;c5.951,0.835,11.379,1.505,16.983-1.517c1.62-0.873,2.855-2.965,1.422-4.686c-4.801-5.769-9.737-5.293-16.892-5.478&#10;&#9;&#9;c0.717-6.273,1.13-12.581,1.347-18.888c0.188-5.469-9.658-4.481-10.121,0.455c-0.572,6.092-1.318,12.126-2.259,18.129&#10;&#9;&#9;c-6.31-0.163-12.62-0.322-18.928-0.569C647.291,252.931,644.642,260.818,650.437,261.609z" style="fill: rgb(106, 140, 169);"/>
	<path fill="#EFDF6E" d="M161.078,1048.201c-3.9,6.136-7.242,12.539-10.1,19.221c-4.296-7.02-10.129-13.169-17.579-16.364&#10;&#9;&#9;c2.636-6.291,4.546-12.617,5.799-19.03C144.123,1040.507,151.222,1046.869,161.078,1048.201z M132.651,224.34&#10;&#9;&#9;c-0.022,10.29-3.187,26.525,1.352,36.017c4.799,10.041,8.711,4.861,13.036-1.639c3.219-4.838,11.685-29.798,19.364-26.314&#10;&#9;&#9;c11.519,5.262,26.969,14.797,40.106,11.609c16.684-4.049-5.629-23.32-6.418-30.254c-1.227-10.777,24.117-16.437,16.841-27.569&#10;&#9;&#9;c-10.507-16.069-35.757,10.493-47.039,0.626c-7.516-6.575-10.748-16.365-19.526-22.563c-14.44-10.198-7.943,26.887-10.71,32.423&#10;&#9;&#9;c-3.124,6.241-25.114,4.482-31.96,10.579c-8.4,7.481-4.605,9.444,2.292,10.28C118.793,218.601,132.656,217.826,132.651,224.34z&#10;&#9;&#9; M1024.905,657.355c-1.481,6.426-4.193,12.152-9.363,16.513c5.441,2.905,9.505,8.169,12.324,14.059&#10;&#9;&#9;c3.444-5.877,7.689-11.174,12.757-15.769C1033.597,669.322,1028.655,663.939,1024.905,657.355z M1083.083,537.273&#10;&#9;&#9;c-10.839-5.045-24.867-1.842-34.889-6.617c-8.568-4.082-5.738-13.834-6.437-22.813c-2.064-26.518-35.81,16.758-37.876,15.356&#10;&#9;&#9;c-6.786-2.917-17.69-7.35-24.967-5.229c-19.426,5.662,8.736,21.345,13.87,24.435c3.012,1.813,1.523,6.556-0.886,8.051&#10;&#9;&#9;c-7.909,4.91-13.708,12.352-15.554,21.617c-0.578,2.903-0.709,6.089,0.776,8.651c6.519,11.24,28.954-8.782,34.617-13.014&#10;&#9;&#9;c4.324-3.232,9.119,0.274,8.747,4.008c0.127,0.26,0.231,0.538,0.284,0.848c2.04,11.885,9.292,28.48,24.185,26.278&#10;&#9;&#9;c17.593-2.602,13.736-24.485,11.928-36.344c-2.305-15.123,26.207-6.523,31.745-17.882&#10;&#9;&#9;C1090.909,539.897,1086.965,539.079,1083.083,537.273z M275.569,270.722c3.577-7.357,7.862-14.185,12.933-20.599&#10;&#9;&#9;c-8.534-1.6-16.005-6-21.52-12.376c-2.021,5.917-5.3,11.486-9.064,16.844C264.903,257.876,270.751,264.179,275.569,270.722z" style="fill: rgb(255, 224, 138);"/>
	<path fill="#F2D890" d="M447.817,786.138c14.706,13.103,30.757,24.668,47.102,35.911c-8.336-2.078-17.91-1.922-24.541-0.412&#10;&#9;&#9;c-7.391,1.684-10.853,5.465-12.051,10.366c-8.134-15.718-20.941-30.821-31.701-41.475&#10;&#9;&#9;C424.409,788.333,446.195,786.225,447.817,786.138z M346.673,867.769c23.535,26.756,55.322,46.74,85.938,64.316&#10;&#9;&#9;c31.019,17.807,63.387,36.009,98.486,44.213c17.252,4.032,36.774,6.284,54.173,1.776c23.959-6.208,30.714-32.091,21.526-52.427&#10;&#9;&#9;c-8.201-18.149-22.538-35.044-37.044-48.257c-17.757-16.173-37.766-31.555-58.353-43.929c1.404,4.17-0.281,22.8-7.365,21.567&#10;&#9;&#9;c33.14,5.767,78.894,22.558,70.692,60.264c-3.99,18.344-27.873,22.609-42.312,14.824c-0.557,6.021-3.462,11.603-9.648,16.308&#10;&#9;&#9;c-12.438,9.46-31.945,1.916-42.309-7.217c-12.893-11.362-14.667-27.073-12.4-42.639c-5.102,5.807-11.85,10.291-19.481,12.565&#10;&#9;&#9;c-14.271,4.253-50.518,1.743-51.133-18.919c-0.121-4.057,0.651-7.631,2.08-10.802c-18.608,0.342-39.589-10.689-46.723-27.152&#10;&#9;&#9;c-9.406-21.703,7.842-37.384,26.326-44.403c-3.622-9.117-4.301-19.824,0.67-27.598c-5.787-1.021-11.387-2.638-16.337-5.891&#10;&#9;&#9;c-2.178-1.431-9.326-10.457-10.596-10.5c-16.098-0.507-27.339,3.38-31.468,19.444c-2.681,10.429-2.899,22.655-0.984,33.255&#10;&#9;&#9;C323.854,835.631,333.985,853.345,346.673,867.769z M748.821,361.917c4.03,11.346,9.624,22.256,17.574,31.374&#10;&#9;&#9;c2.259,2.59,23.339,22.385,26.166,20.243c3.693-2.798,28.393-16.669,28.624-19.008c0.779-7.895,2.192-15.89,4.176-23.864&#10;&#9;&#9;c-27.057-4.562-60.761-29.442-69.663-55.498c-11.037-32.302,7.781-56.641,24.261-81.989c-9.132-9.52-15.956-20.394-14.563-32.614&#10;&#9;&#9;c2.672-23.447,31.586-47.841,51.617-57.154c13.029-6.057,34.467-6.471,45.557,4.565c4.479-8.045,10.74-15.002,19.431-19.968&#10;&#9;&#9;c23.281-13.303,51.679-7.555,72.091,8.393c13.003,10.159,33.138,30.337,32.403,48.832c5.665,0.001,11.102,0.914,15.978,3.135&#10;&#9;&#9;c21.971,10.004,28.382,44.91,28.93,66.287c0.497,19.363-10.47,41.301-28.05,50.396c4.93,5.584,8.395,12.359,9.381,20.751&#10;&#9;&#9;c2.648,22.535-16.151,42.274-32.404,54.993c-12.816,10.029-31.62,22.521-47.75,17.155c-3.895,13.208-15.504,22.535-28.128,27.302&#10;&#9;&#9;c-24.132,9.113-51.684,6.901-72.585-7.233c0.384,3.253,0.83,6.492,1.391,9.707c27.128,9.419,62.537,10.413,90.588,7.858&#10;&#9;&#9;c27.447-2.5,51.141-12.54,69.51-33.625c34.675-39.804,56.014-95.685,66.749-146.699c6.823-32.428,4.065-58.915-9.766-88.637&#10;&#9;&#9;C1018.39,97.952,925.214,64.267,853.404,82.496c-42.604,18.015-79.381,50.154-98.556,92.544&#10;&#9;&#9;c-16.257,35.939-18.56,76.5-17.013,115.382C738.792,314.445,740.716,339.096,748.821,361.917z"/>
	<path fill="#EDA555" d="M309.919,166.859c-8.351-3.097,5.362-13.416,8.716-15.373c7.159-4.176,15.883-5.472,24.011-6.185&#10;&#9;&#9;c8.068-0.707,15.516,1.513,23.079,2.648c-3.177-0.477-20.57,14.056-25.437,15.864C332.03,166.882,318.652,170.069,309.919,166.859z&#10;&#9;&#9; M543.118,475.979c-23.691-45.845-47.364-91.699-71.182-137.477c-21.702-41.71-43.54-83.357-65.647-124.855&#10;&#9;&#9;c-10.449-19.612-20.406-40.085-32.389-58.954c-16.364,15.389-37.215,25.037-58.989,22.18c17.024,26.815,31.928,55.238,47.17,82.988&#10;&#9;&#9;c41.377,75.328,81.944,151.097,122.227,227.016C503.969,483.524,523.565,479.862,543.118,475.979z M684.388,862.86&#10;&#9;&#9;c2.326,3.625,26.977,40.36,37.555,54.871c14.002,19.208,31.708,44.016,58.92,29.818c14.345-7.484,17.673-20.26,11.1-34.228&#10;&#9;&#9;c-4.012-8.527-9.115-16.464-13.324-24.893c-6.765,3.254-13.658,6.14-20.624,8.035C745.756,899.798,697.661,872.471,684.388,862.86z&#10;&#9;&#9; M616.512,740.001c9.562,19.315,18.143,38.84,26.445,58.509c2.769-20.691,14.746-70.422,17.747-77.247&#10;&#9;&#9;c2.939-6.684,6.158-12.532,7.67-10.605c-9.276-11.821-16.094-26.149-23.193-39.215c-10.002-18.406-19.758-36.944-29.457-55.51&#10;&#9;&#9;c-16.854-32.263-33.605-64.58-50.334-96.908c-8.116-0.797-53.77-6.821-68.538-8.535&#10;&#9;&#9;C510.736,536.706,591.404,689.282,616.512,740.001z M558.155,505.045c-2.646-5.118-5.297-10.234-7.943-15.352&#10;&#9;&#9;c-16.783,3.385-33.597,6.618-50.444,9.652C519.228,500.708,538.677,503.027,558.155,505.045z" style="fill: rgb(253, 130, 157);"/>
	<path fill="#FFFFFF" d="M244.426,655.249c3.464-8.645,21.009-6.234,25.567,0.479c5.089,7.495-4.723,17.922-12.725,18.421&#10;&#9;&#9;C247.644,674.75,241.484,662.6,244.426,655.249z M586.341,793.579c0.702-8.55-10.58-16.633-16.385-8.199&#10;&#9;&#9;c-2.825,4.105-3.827,7.573-3.631,10.342C567.072,806.287,585.26,806.703,586.341,793.579z M676.219,998.868&#10;&#9;&#9;c20.535-5.9,2.023-31.845-10.155-20.986c-0.365,0.326-0.725,0.685-1.078,1.078C656.357,988.592,663.248,1002.596,676.219,998.868z&#10;&#9;&#9; M369.505,1009.431c-4.66-0.768-17.325-2.039-13.72,6.977c3.234,8.088,14.725,10.037,21.436,5.609&#10;&#9;&#9;C384.862,1016.973,374.741,1010.294,369.505,1009.431z M378.544,578.265c5.68,0.681,12.925-1.162,12.952-8.071&#10;&#9;&#9;c0.021-5.453-3.853-10.608-9.235-11.668C365.4,555.211,362.157,576.298,378.544,578.265z M799.74,548.183&#10;&#9;&#9;c-4.222,1.952-7.332,6.101-4.26,10.617c3.829,5.631,10.676,7.394,15.397,5.891c4.416-1.407,6.971-5.674,3.448-12.31&#10;&#9;&#9;C811.565,547.184,804.856,545.819,799.74,548.183z M714.31,618.948c-4.645,1.64-8.055,6.109-9.685,10.919&#10;&#9;&#9;c-3.471,14.587,30.986,16.195,30.33-0.738C734.598,619.898,721.675,616.348,714.31,618.948z M452.173,769.205&#10;&#9;&#9;c27.555-20.709,56.989-38.494,87.402-54.691c-6.433-11.512-37.696-61.107-48.615-68.568c-10.874-7.429-71.218,37.34-84.657,45.315&#10;&#9;&#9;C411.507,696.441,451.532,768.128,452.173,769.205z M319.481,694.489c10.091,1.222,58.998-0.85,70.422,2.798&#10;&#9;&#9;c14.446,4.614,47.166,68.787,50.18,73.944c-2.146-0.353-59.816-1.53-70.711-9.764C358.68,753.387,327.92,704.984,319.481,694.489z&#10;&#9;&#9; M327.502,682.487c22.638-16.176,43.151-35.266,67.76-48.626c17.642-9.577,33.432-10.443,52.66-5.61&#10;&#9;&#9;c7.158,1.799,15.081,5.36,22.98,7.649c-7.23,4.647-54.816,38.232-72.433,50.639C389.284,683.414,341.232,682.374,327.502,682.487z&#10;&#9;&#9; M833.863,833.016c-9.708-9.555-61.708-35.489-75.321-38.752c9.181-16.89,33.32-84.819,34.481-101.491&#10;&#9;&#9;c-0.194,2.786,62.285,42.424,72.178,52.263c14.607,14.526-3.329,39.454-11.248,54.201&#10;&#9;&#9;C847.738,810.813,840.577,821.768,833.863,833.016z M783.133,872.082c-10.792,5.714-22.01,10.479-32.569,11.404&#10;&#9;&#9;c-14.39,1.261-73.094-41.661-89.966-50.927c17.812-3.332,35.497-7.083,52.971-12.044c13.982-3.969,29.215-6.702,38.961-17.299&#10;&#9;&#9;c15.417,12.086,37.069,18.542,54.301,27.302c4.088,2.078,16.345,6.47,17.411,10.841&#10;&#9;&#9;C826.088,848.927,793.126,866.791,783.133,872.082z M784.559,688.859c1.562,18.463-35.65,101.241-41.931,106.811&#10;&#9;&#9;c-10.437,9.255-75.048,22.379-89.197,24.497c3.346-31.321,7.605-62.434,13.862-93.335&#10;&#9;&#9;C677.558,711.477,763.585,693.368,784.559,688.859z" style="fill: rgb(255, 253, 245);"/>
	<path fill="#F2C053" d="M387.021,820.755c7.241,7.873,39.537,22.201,45.619,25.105c5.475,2.614,16.622,10.817,22.559,10.713&#10;&#9;&#9;c-13.57,0.239-34.555,3.002-47.151,12.538c-13.945-6.812-33.03-2.386-41.95-18.051c-3.662-6.43-4.217-14.738-1.029-21.45&#10;&#9;&#9;c2.727-5.72,11.398-13.147,17.12-15.42C383.541,816.568,385.175,818.748,387.021,820.755z M479.367,876.783&#10;&#9;&#9;c-1.615,11.824-3.57,25.109-0.51,36.87c2.996,11.513,15.042,25.565,28.362,24.807c31.677-1.802-3.181-39.655-9.268-46.009&#10;&#9;&#9;C492.109,886.353,479.412,876.45,479.367,876.783z M442.819,900.584c8.773-1.747,23.936-11.487,25.343-22.268&#10;&#9;&#9;c0.346-2.651-0.14-5.365-1.757-8.037c-5.568-9.206-22.143-8.304-30.748-5.465c-9.133,3.013-37.288,17.056-23.903,29.981&#10;&#9;&#9;C418.686,901.489,433.827,902.374,442.819,900.584z M548.654,922.354c18.97,0.217,18.057-20.232,9.418-30.085&#10;&#9;&#9;c-14.281-16.284-42.663-27.506-64.364-31.829c-4.002,1.465-8.314,2.503-12.587,3.121c12.631,7.867,36.044,27.346,46.33,46.835&#10;&#9;&#9;C534.615,914.389,539.58,922.25,548.654,922.354z M444.881,987.231c40.287,21.138,113.84,54.729,152.19,12.448&#10;&#9;&#9;c6.397-7.052,10.575-14.656,12.973-22.541c-12.44,13.725-33.214,17.675-54.526,16.66c-44.35-2.112-85.43-24.671-123.271-46.001&#10;&#9;&#9;c-54.498-30.719-152.551-94.859-118.79-168.984c-8.32,7.878-14.468,18.426-17.454,30.724c-7.594,31.274,6.127,62.658,25.251,86.928&#10;&#9;&#9;C353.118,936.907,399.984,963.674,444.881,987.231z M479.31,830.498c-12.191,1.723-15.609,24.28,0.905,21.108&#10;&#9;&#9;c5.132-0.988,18.027-5.415,18.811-11.942C500.01,831.469,485.146,829.672,479.31,830.498z M455.251,843.626&#10;&#9;&#9;c-3.549-6.874-8.089-13.037-12.48-19.373c-8.317-12.001-24.924-44.572-43.814-41.865c-1.564,0.224-3.142,0.69-4.733,1.429&#10;&#9;&#9;c-8.752,4.07-8.352,16.31-4.08,23.44C403.266,826.94,434.655,834.471,455.251,843.626z M767.853,312.313&#10;&#9;&#9;c10.222,25.626,37.803,36.158,60.198,48.534c7.692-25.114,20.622-49.368,36.004-68.373c0.634-0.783-41.711-22.972-56.432-35.489&#10;&#9;&#9;c-5.925-5.039-13.669-10.813-20.917-17.318C773.966,262.158,757.292,285.836,767.853,312.313z M1017.899,237.709&#10;&#9;&#9;c-3.084-14.82-6.301-34.351-22.78-39.726c-12.232-3.989-26.955,0.727-37.963,5.487c-29.633,12.816-40.33,44.991-60.276,68.226&#10;&#9;&#9;c20.81-5.392,46.345,4.914,65.381,10.907c11.56,3.639,24.415,8.465,34.311,16.14&#10;&#9;&#9;C1017.382,283.866,1023.042,262.426,1017.899,237.709z M942.643,142.736c-18.01-12.365-45.24-15.944-62.532-0.321&#10;&#9;&#9;c-18.76,16.95-19.453,46.676-15.795,69.751c1.875,11.824,16.872,64.493,13.837,67.365c20.944-19.815,31.241-48.069,51.293-68.643&#10;&#9;&#9;c10.241-10.507,28.397-21.176,46.088-24.57C972.622,169.049,956.318,152.125,942.643,142.736z M1012.584,88.488&#10;&#9;&#9;c-29.776-19.117-75.718-29.407-110.417-19.404c27.955,7.491,56.415,8.984,83.744,20.112c21.796,8.875,42.308,20.561,56.589,39.742&#10;&#9;&#9;c13.589,18.251,25.166,42.437,30.837,64.404c5.969,23.118,1.951,47.195-3.077,70.091c-5.275,24.019-12.884,47.448-22.673,70.005&#10;&#9;&#9;c-17.573,40.489-42.408,88.906-85.678,106.422c-21.215,8.587-44.661,9.453-67.252,8.487c-20.772-0.888-40.362-2.727-59.236-10.358&#10;&#9;&#9;c1.484,6.113,3.335,12.177,5.647,18.208c65.186,51.437,168.5-9.894,211.377-65.007c23.248-29.884,33.319-64.254,38.639-101.338&#10;&#9;&#9;c5.537-38.593,6.216-78.34-8.969-114.98C1068.168,141.217,1043.451,108.306,1012.584,88.488z M875.184,297.14&#10;&#9;&#9;c-11.005,4.777-16.654,21.483-21.789,31.307c-6.617,12.662-22.624,61.148-21.453,69.972c0.954,7.193,5.302,13.231,16.256,17.294&#10;&#9;&#9;c14.991,5.561,34.07,4.483,49.224,0.012c48.152-14.208,12.445-65.77,1.752-94.916C895.843,311.727,888.574,291.332,875.184,297.14z&#10;&#9;&#9; M983.084,362.743c13.359-11.834,25.282-29.994,13.198-47.03c-10.359-14.601-31.135-20.045-46.945-26.203&#10;&#9;&#9;c-17.307-6.742-43.321-16.954-60.699-5.217c13.347,8.985,22.03,39.105,27.607,52.255c6.146,14.491,16.73,32.01,17.656,48.903&#10;&#9;&#9;C934.345,393.544,980.478,365.05,983.084,362.743z M809.783,159.248c-9.656,6.818-18.621,15.409-25.69,24.886&#10;&#9;&#9;c-21.938,29.404,56.697,83.572,65.522,87.865c2.703,1.315,17.527,5.096,18.123,6.529c-4.577-11.003-14.811-65.773-15.116-81.436&#10;&#9;&#9;c-0.248-12.789,0.997-26.42,5.249-38.619C846.039,142.978,822.639,150.17,809.783,159.248z"/>
	<path fill="#C5E7E2" d="M593.36,426.467c21.308-1.925,41.598-7.552,61.816-14.322c21.182-7.092,42.037-13.33,64.474-14.734&#10;&#9;&#9;c9.493-0.594,20.787-1.061,31.68,0.039c-13.914-18.911-24.428-70.288-24.621-71.877c-38.311-12.33-83.275-9.686-122.818-7.827&#10;&#9;&#9;c-41.118,1.933-81.455,10.051-122.38,12.946c-0.103,0.008-0.181-0.033-0.28-0.033c17.104,32.314,34.054,64.713,50.99,97.115&#10;&#9;&#9;C552.575,427.374,573.069,428.3,593.36,426.467z M513.667,356.816c32.171-8.65,64.224-14.546,97.504-16.529&#10;&#9;&#9;c23.114-1.378,52.811-4.481,71.066,12.621c3.686,3.453-0.042,8.593-4.589,8.045c-12.392-1.497-23.974-5.236-36.536-5.837&#10;&#9;&#9;c-12.187-0.583-24.511-0.052-36.686,0.634c-30.031,1.692-60.446,4.553-90.011,10.112&#10;&#9;&#9;C507.585,367.145,507.799,358.394,513.667,356.816z M154.683,467.801c-0.026-0.028-0.058-0.044-0.085-0.071&#10;&#9;&#9;c5.446-4.735,10.709-9.573,16.622-13.91c5.652-4.146,11.727-8.103,17.194-12.65c9.983,19.267,23.723,38.301,17.355,57.782&#10;&#9;&#9;C187.131,493.013,169.768,483.332,154.683,467.801z M295.056,454.877c21.812,14.78,46.785,7.729,67.935-3.791&#10;&#9;&#9;c23.036-12.547,50.134-19.586,76.736-19.864c-6.056-11.567-12.102-23.138-18.164-34.703c-8.394-16.012-16.894-31.969-25.369-47.939&#10;&#9;&#9;c-8.903,3.974-18.96,5.547-28.344,8.172c-13.413,3.751-26.743,7.809-40.007,12.057c-26.382,8.449-52.86,17.83-77.672,30.293&#10;&#9;&#9;c0.783,0.776,1.535,1.554,2.221,2.329C267.653,418.667,275.394,441.554,295.056,454.877z M303.045,403.877&#10;&#9;&#9;c18.927-8.434,47.044-22.066,68.138-16.496c3.907,1.031,5.017,5.836,1.141,7.928c-9.714,5.238-19.899,6.057-30.605,8.339&#10;&#9;&#9;c-12.365,2.636-24.442,6.259-36.308,10.602C298.156,416.905,296.98,406.579,303.045,403.877z M889.666,488.756&#10;&#9;&#9;c31.86,51.514,45.11,114.485,57.335,173.089c7.178,34.411,13.065,69.087,17.659,103.935c3.518,26.685,8.178,54.134,5.959,81.102&#10;&#9;&#9;c-4.082,49.635-20.83,99.132-54.476,136.723c-41.843,46.75-100.971,71.54-158.808,92.187&#10;&#9;&#9;c-58.001,20.704-116.885,38.857-177.623,49.604c-31.812,5.628-64.02,9.326-96.325,10.266c-33.092,0.964-69.498,0.906-101.49-8.412&#10;&#9;&#9;c-51.201-14.914-99.496-44.285-131.933-87.163c-31.527-41.676-41.881-96.946-55.294-146.461&#10;&#9;&#9;c-17.363-64.104-29.056-127.752-33.122-194.164c-4.43-72.351-2.756-144.949-7.748-217.259&#10;&#9;&#9;c13.023,13.149,27.553,22.149,43.18,28.238c-11.235,12.81-17.182,29.685-12.101,46.378c1.384,61.488,1.355,123.927,8.876,184.974&#10;&#9;&#9;c7.405,60.116,24.02,118.88,41.939,176.59c15.034,48.415,43.318,92.46,82.285,125.268c39.293,33.081,90.909,46.229,141.045,51.644&#10;&#9;&#9;c55.779,6.025,112.509,0.322,167.205-11.29c51.647-10.964,103.461-25.901,152.051-46.703&#10;&#9;&#9;c43.901-18.794,86.55-44.185,116.863-81.829c11.633-14.446,20.223-27.908,24.349-46.132c4.654-20.555,7.502-42.191,10.112-63.093&#10;&#9;&#9;c8.154-65.293-1.412-131.372-18.158-194.593c-15.677-59.186-35.542-117.477-60.186-173.551&#10;&#9;&#9;C863.46,484.208,876.395,487.578,889.666,488.756z"/>
	<path fill="#FEFAD3" d="M191.661,415.8c-1.681-15.832,6.018-23.85,17.21-24.446c4.9-0.262,10.47,0.901,16.218,3.453&#10;&#9;&#9;c25.395,11.282,32.997,38.779,49.528,58.508c17.025,20.32,45.692,26.526,70.467,18.931c20.542-6.296,37.491-20.219,58.506-25.336&#10;&#9;&#9;c13.267-3.23,27.003-5.841,40.695-6.979c8.604,16.439,17.207,32.878,25.797,49.323c-53.008,8.615-106.397,15.095-160.074,17.45&#10;&#9;&#9;c-31.742,1.392-64.605,2.418-94.692-5.053C228.275,471.345,194.828,445.608,191.661,415.8z M270.93,558.779&#10;&#9;&#9;c13.879-9.603,25.243-21.776,40.118-30.162c4.978-2.806,10.232-5.392,15.614-7.799c-12.822,0.714-25.654,1.238-38.498,1.475&#10;&#9;&#9;c-28.704,0.531-56.492-0.71-81.764-8.559c-13.993,17.591-17.443,48.181,7.804,57.673&#10;&#9;&#9;C232.396,578.246,255.975,569.127,270.93,558.779z M215.193,303.012c-14.3,2.577-24.418,16.466-16.428,30.209&#10;&#9;&#9;c4.522,7.778,16.126,18.428,26.881,20.475c2.731,0.52,5.405,0.486,7.897-0.291C261.486,344.697,242.902,298.019,215.193,303.012z&#10;&#9;&#9; M917.576,780.824c-2.126-56.933-15.361-113.132-31.763-167.489c-13.491-44.706-30.726-88.23-44.346-132.847&#10;&#9;&#9;c-12.053,21.457-38.813,25.038-62.615,27.772c-39.911,4.582-79.92,9.896-120.003,12.681c-26.357,1.831-52.233,1.385-78.174-0.583&#10;&#9;&#9;c17.765,33.956,35.463,67.947,53.237,101.899c14.185,27.095,32.065,54.762,42.867,83.609c9.595-4.437,20.627-6.717,30.437-9.473&#10;&#9;&#9;c20.876-5.864,42.105-10.385,63.497-13.904c18.199-2.993,25.077,1.037,40.712,10.19c11.115,6.504,52.725,34.811,62.576,42.026&#10;&#9;&#9;c4.575,3.35,8.559,6.984,10.427,12.516c4.947,14.649-6.852,34-12.945,46.699c-8.256,17.209-18.244,34.93-31.452,48.93&#10;&#9;&#9;c3.081,15.654-26.342,27.19-37.896,33.298c-5.217,2.758-10.581,5.722-16.053,8.568c6.155,11.56,14.39,22.108,18.979,34.437&#10;&#9;&#9;c3.401,9.134,1.377,14.492-4.256,22.478c-11.858,16.811-33.921,25.528-53.61,18.153c-20.506-7.682-34.112-32.872-46.125-49.934&#10;&#9;&#9;c-8.735-12.406-38.734-54.615-42.422-64.673c-0.143-0.388-0.197-0.762-0.204-1.123c-0.083-3.956-16.563-8.936-18.554-14.046&#10;&#9;&#9;c-1.62-4.171,3.358-12.172,1.165-15.693c-4.017-6.446-35.885-64.594-47.623-87.385c-37.503-72.82-75.257-145.504-113.149-218.118&#10;&#9;&#9;c-9.838-0.839-19.686-1.339-29.529-1.295c-31.48,4.819-63.122,8.712-94.867,11.304c-24.262,12.633-47.208,24.662-68.425,42.682&#10;&#9;&#9;c-16.707,14.19-35.918,24.595-58.314,25.37c-13.107,0.454-25.239-3.792-33.865-12.457c4.265,63.151,6.139,126.916,17.059,189.238&#10;&#9;&#9;c5.287,30.173,12.378,59.969,20.556,89.482c7.987,28.822,15.202,59.272,26.979,86.802c18.807,43.963,53.113,87.578,95.574,110.689&#10;&#9;&#9;c47.526,25.867,106.34,32.214,159.602,31.144c53.889-1.083,107.495-11.34,159.308-25.738&#10;&#9;&#9;c46.342-12.878,93.228-27.866,135.45-51.287c19.904-11.042,85.951-69.812,92.252-88.426c5.629-16.629,6.822-34.572,9.628-51.8&#10;&#9;&#9;C916.229,836.657,918.631,809.07,917.576,780.824z M745.327,633.926c-4.3,14.437-22.305,21.556-36.056,17.938&#10;&#9;&#9;c-9.65-2.539-17.231-12.576-15.023-21.557c0.947-13.894,15.763-24.464,29.297-23.398&#10;&#9;&#9;C737.106,607.978,749.578,619.656,745.327,633.926z M786.183,565.058c-7.048-8.86-2.287-18.076,6.102-23.311&#10;&#9;&#9;c9.545-5.957,23.791-6.76,30.681,3.98C838.677,570.225,801.437,584.236,786.183,565.058z M582.496,772.499&#10;&#9;&#9;c39.792,10.681-12.408,68.074-22.995,26.875C555.866,785.216,562.064,767.016,582.496,772.499z M373.732,550.32&#10;&#9;&#9;c5.837-1.657,12.412-1.421,17.82,1.494c8.571,4.622,12.981,15.962,8.669,24.925c-5.263,10.942-20.299,13.024-30.6,8.739&#10;&#9;&#9;C352.011,578.151,357.416,554.951,373.732,550.32z M234.732,667.249c-1.53-3.643-2.226-7.408-1.736-10.765&#10;&#9;&#9;c2.472-16.939,22.391-19.802,35.373-13.894c16.477,7.498,18.407,19.788,5.417,32.807&#10;&#9;&#9;C260.771,688.438,241.903,684.311,234.732,667.249z M389.885,1022.115c-8.188,21.809-47.648,12.396-45.595-10.02&#10;&#9;&#9;c0.981-10.708,13.061-14.91,24.699-13.714C382.335,999.752,395.102,1008.221,389.885,1022.115z M566.312,1031.816&#10;&#9;&#9;c-58.756,11.202-120.469-25.724-168.674-54.606c-47.039-28.184-99.538-67.063-114.219-122.974&#10;&#9;&#9;c-11.723-44.644,13.194-103.828,62.623-100.668c-1.979-3.216-24.155-36.907-33.062-50.96c-4.934-7.784-7.178-10.39-1.716-18.33&#10;&#9;&#9;c8.737-12.7,71.699-58.731,93.26-67.055c14.761-5.699,29.772-4.536,44.929-1.052c25.394,5.838,44.052,14.298,61.658,33.927&#10;&#9;&#9;c11.083,12.357,44.346,59.786,40.461,68.755c-5.621,12.973-91.792,62.431-94.134,61.038c16.607,9.876,32.115,22.164,47.836,33.19&#10;&#9;&#9;c15.225,10.679,30.596,21.167,45.57,32.199c25.677,18.917,51.361,40.973,64.647,70.708&#10;&#9;&#9;C635.922,961.72,620.518,1021.482,566.312,1031.816z M656.666,1005.801c-2.802-2.075-5.043-5.049-6.388-9.065&#10;&#9;&#9;c-2.987-8.931-1.024-21.846,7.678-26.924c11.976-6.988,29.216-5.23,37.313,6.942&#10;&#9;&#9;C709.819,998.631,673.329,1018.136,656.666,1005.801z M883.148,849.748c-7.213,48.339-34.872,111.243-85.397,127.649&#10;&#9;&#9;c-4.583,1.488-7.585-3.99-4.164-7.125c36.857-33.773,70.023-70.052,79.044-121.109&#10;&#9;&#9;C873.733,842.925,884.205,842.666,883.148,849.748z M724.531,435.738c16.61-4.711,33.37-11.639,50.258-16.587&#10;&#9;&#9;c-0.525,0.154-6.2-3.349-9.728-5.396c-1.237-0.718-14.253-3.971-20.02-4.419c-11.787-0.915-23.682,0.082-35.392,1.459&#10;&#9;&#9;c-20.2,2.376-39.049,9.153-58.239,15.493c-37.581,12.414-75.636,14.69-114.558,10.348c6.403,12.25,12.811,24.495,19.224,36.738&#10;&#9;&#9;c29.843-6.058,59.608-12.509,89.386-18.927C671.949,448.739,698.452,443.135,724.531,435.738z M818.744,408.555&#10;&#9;&#9;c-16.942,8.125-32.278,19.037-49.701,26.222c-17.481,7.208-35.742,12.277-53.902,17.435c-27.882,7.919-56.346,13.974-84.621,20.305&#10;&#9;&#9;c-22.382,5.011-44.807,9.884-67.281,14.52c2.653,5.058,4.853,11.709,8.193,16.226c10.397,14.066,48.098,6.236,62.952,5.33&#10;&#9;&#9;c34.504-2.106,139.711-13.02,157.674-15.232c11.576-1.426,25.609-3.485,35.329-10.396c15.589-11.083,0.142-26.21-3.689-40.586&#10;&#9;&#9;C820.758,431.341,818.926,419.99,818.744,408.555z" style="fill: rgb(255, 242, 194);"/>
</g>
</svg>